<svg viewBox="-18845 -58.5 19624.5 2453.5" width="19624.5" height="2453.5" version="1.1" baseProfile="full" xmlns="http://www.w3.org/2000/svg" class="js-draw--autoresize"><style id="js-draw-style-sheet">path{stroke-linecap:round;stroke-linejoin:round;}text{white-space:pre;}</style><path d="M779.5,2395l0-2453.5l-19624.5,0l0,2453.5l19624.5,0" fill="#ffffff" class="js-draw-image-background"></path><path d="M-513,-52q41,5 88,6q106,2 203,14q34,1 62,1q10,0 52,3q40,3 220-2q22-1 108-5q165-1 300,2q101,2 116-8q7-5 12-9q8-6 59-6q39,0 71-1" fill="none" stroke="#000000" stroke-width="3"></path><path d="M-2256,28q101,25 225,33q198,13 591,49q195,18 913,18q107-3 194-7q34-1 168,0q38,0 187-22q33-5 183-5" fill="none" stroke="#000000" stroke-width="9"></path><path d="M-6630,90q2440,140 3260,220q250,20 1250,140q80,10 420,80q60,10 310,0q10,0 20-20" fill="none" stroke="#000000" stroke-width="30"></path><path d="M-18750,1140q6930,510 12600,880q1020,70 5090,190q250,10 1250,90" fill="none" stroke="#000000" stroke-width="190"></path></svg>